<svg xmlns="http://www.w3.org/2000/svg" width="337.62" height="110.288" viewBox="0 0 337.62 110.288">
  <g id="Group_1" data-name="Group 1" transform="translate(-69.771 -600)">
    <g id="Group_1-2" data-name="Group 1" transform="translate(-754.774 69.042)">
      <rect id="Rectangle_4" data-name="Rectangle 4" width="31.194" height="31.194" transform="translate(868.659 553.016) rotate(45)" fill="rgba(255,255,255,0.8)"/>
      <path id="Rectangle_11" data-name="Rectangle 11" d="M0,0H31.194V31.194H4a4,4,0,0,1-4-4Z" transform="translate(846.602 575.073) rotate(45)" fill="rgba(255,255,255,0.9)"/>
      <rect id="Rectangle_7" data-name="Rectangle 7" width="31.194" height="31.194" transform="translate(912.774 553.016) rotate(45)" fill="rgba(255,255,255,0.8)"/>
      <rect id="Rectangle_9" data-name="Rectangle 9" width="31.194" height="31.194" transform="translate(890.716 575.073) rotate(45)" fill="rgba(255,255,255,0.9)"/>
      <path id="Rectangle_13" data-name="Rectangle 13" d="M0,0H31.194V27.194a4,4,0,0,1-4,4H0Z" transform="translate(912.774 597.131) rotate(45)" fill="#fff"/>
      <path id="Rectangle_14" data-name="Rectangle 14" d="M0,0H31.194V27.194a4,4,0,0,1-4,4H0Z" transform="translate(868.659 597.131) rotate(45)" fill="#fff"/>
      <path id="Rectangle_15" data-name="Rectangle 15" d="M0,0H31.194V27.194a4,4,0,0,1-4,4H0Z" transform="translate(956.889 597.131) rotate(45)" fill="#fff"/>
      <rect id="Rectangle_10" data-name="Rectangle 10" width="31.194" height="31.194" transform="translate(934.831 575.073) rotate(45)" fill="rgba(255,255,255,0.9)"/>
      <path id="Rectangle_12" data-name="Rectangle 12" d="M0,0H27.194a4,4,0,0,1,4,4V31.194H0Z" transform="translate(978.946 575.073) rotate(45)" fill="rgba(255,255,255,0.9)"/>
      <rect id="Rectangle_8" data-name="Rectangle 8" width="31.194" height="31.194" transform="translate(956.889 553.016) rotate(45)" fill="rgba(255,255,255,0.8)"/>
      <path id="Rectangle_5" data-name="Rectangle 5" d="M3,0H31.194V31.194H0V3A3,3,0,0,1,3,0Z" transform="translate(890.716 530.958) rotate(45)" fill="rgba(255,255,255,0.7)"/>
      <path id="Rectangle_6" data-name="Rectangle 6" d="M3,0H31.194V31.194H0V3A3,3,0,0,1,3,0Z" transform="translate(934.831 530.958) rotate(45)" fill="rgba(255,255,255,0.7)"/>
    </g>
    <path id="Path_189" data-name="Path 189" d="M27.515-41.87a10.8,10.8,0,0,0-9.263,4.495q-3.281,4.495-3.281,12.527,0,16.714,12.544,16.714a39.653,39.653,0,0,0,12.749-2.632V-1.88A35.405,35.405,0,0,1,26.523.684q-10.9,0-16.68-6.614T4.067-24.917A31,31,0,0,1,6.9-38.572a20.5,20.5,0,0,1,8.152-8.989,24.115,24.115,0,0,1,12.458-3.127,33.625,33.625,0,0,1,14.629,3.521l-3.418,8.613a56.578,56.578,0,0,0-5.64-2.324A16.824,16.824,0,0,0,27.515-41.87ZM74.341,0,72.324-5.2h-.273A15.4,15.4,0,0,1,66.633-.6,17.508,17.508,0,0,1,59.37.684q-5.5,0-8.665-3.145t-3.162-8.955q0-6.084,4.255-8.972t12.834-3.2l6.631-.205v-1.675q0-5.811-5.947-5.811a27.1,27.1,0,0,0-10.767,2.769L51.1-35.547A31.065,31.065,0,0,1,65.728-39q7.69,0,11.792,3.35t4.1,10.186V0ZM71.265-17.705l-4.033.137q-4.546.137-6.768,1.641a5.153,5.153,0,0,0-2.222,4.58q0,4.409,5.059,4.409a8.012,8.012,0,0,0,5.793-2.085,7.323,7.323,0,0,0,2.17-5.537Zm42.417-21.226a16.812,16.812,0,0,1,3.521.308l-.786,9.775a11.942,11.942,0,0,0-3.076-.342q-4.99,0-7.776,2.563a9.267,9.267,0,0,0-2.786,7.178V0H92.354V-38.213h7.9l1.538,6.426h.513a14.365,14.365,0,0,1,4.8-5.178A11.841,11.841,0,0,1,113.682-38.931Zm24.883,7.417a6.612,6.612,0,0,0-5.2,2.1,9.729,9.729,0,0,0-2.153,5.964h14.629a8.69,8.69,0,0,0-2.017-5.964A6.828,6.828,0,0,0,138.564-31.514Zm1.47,32.2q-9.229,0-14.424-5.093t-5.2-14.424q0-9.6,4.8-14.851T138.5-38.931q8.1,0,12.612,4.614t4.512,12.749v5.059H130.977a10.034,10.034,0,0,0,2.632,6.938,9.26,9.26,0,0,0,6.9,2.5,28.662,28.662,0,0,0,6.528-.718,32.666,32.666,0,0,0,6.426-2.29v8.066A24.479,24.479,0,0,1,147.622.017,36.851,36.851,0,0,1,140.034.684Z" transform="translate(251.771 684)" fill="#fff"/>
  </g>
</svg>
